<svg width="22" height="22" viewBox="0 0 22 22" fill="none" xmlns="http://www.w3.org/2000/svg">
<path d="M17.6667 3H4.83333C3.82042 3 3 3.82042 3 4.83333V17.6667C3 18.6796 3.82042 19.5 4.83333 19.5H17.6667C18.6796 19.5 19.5 18.6796 19.5 17.6667V4.83333C19.5 3.82042 18.6796 3 17.6667 3ZM8.5 15.8333H6.18725V9.41667H8.5V15.8333ZM7.30283 8.24058C6.59608 8.24058 6.124 7.76942 6.124 7.14058C6.124 6.51175 6.59517 6.04058 7.38075 6.04058C8.0875 6.04058 8.55958 6.51175 8.55958 7.14058C8.55958 7.76942 8.08842 8.24058 7.30283 8.24058ZM16.75 15.8333H14.5115V12.3262C14.5115 11.3563 13.9148 11.1327 13.6911 11.1327C13.4674 11.1327 12.7212 11.2821 12.7212 12.3262C12.7212 12.4756 12.7212 15.8333 12.7212 15.8333H10.4085V9.41667H12.7212V10.3123C13.0192 9.78975 13.6159 9.41667 14.7352 9.41667C15.8544 9.41667 16.75 10.3123 16.75 12.3262V15.8333Z" fill="#1D1C1B"/>
</svg>
