<svg width="41" height="31" viewBox="0 0 41 31" fill="none" xmlns="http://www.w3.org/2000/svg">
<circle cx="25.827" cy="15.1726" r="14.6727" transform="rotate(-90 25.827 15.1726)" stroke="#1D1C1B"/>
<mask id="path-2-outside-1_42_32" maskUnits="userSpaceOnUse" x="-2.62268e-07" y="11.7086" width="28" height="7" fill="black">
<rect fill="white" x="-2.62268e-07" y="11.7086" width="28" height="7"/>
<path fill-rule="evenodd" clip-rule="evenodd" d="M1 14.7294L1 15.5731L23.3577 15.5731L23.3577 17.7086L27.1542 15.1513L23.3577 12.594L23.3577 14.7294L1 14.7294Z"/>
</mask>
<path fill-rule="evenodd" clip-rule="evenodd" d="M1 14.7294L1 15.5731L23.3577 15.5731L23.3577 17.7086L27.1542 15.1513L23.3577 12.594L23.3577 14.7294L1 14.7294Z" fill="#1D1C1B"/>
<path d="M1 15.5731L0.8 15.5731L0.8 15.7731L1 15.7731L1 15.5731ZM1 14.7294L1 14.5294L0.8 14.5294L0.8 14.7294L1 14.7294ZM23.3577 15.5731L23.5577 15.5731L23.5577 15.3731L23.3577 15.3731L23.3577 15.5731ZM23.3577 17.7086L23.1577 17.7086L23.1577 18.0845L23.4694 17.8745L23.3577 17.7086ZM27.1542 15.1513L27.266 15.3172L27.5122 15.1513L27.266 14.9854L27.1542 15.1513ZM23.3577 12.594L23.4694 12.4282L23.1577 12.2182L23.1577 12.594L23.3577 12.594ZM23.3577 14.7294L23.3577 14.9294L23.5577 14.9294L23.5577 14.7294L23.3577 14.7294ZM1.2 15.5731L1.2 14.7294L0.8 14.7294L0.8 15.5731L1.2 15.5731ZM23.3577 15.3731L1 15.3731L1 15.7731L23.3577 15.7731L23.3577 15.3731ZM23.5577 17.7086L23.5577 15.5731L23.1577 15.5731L23.1577 17.7086L23.5577 17.7086ZM27.0425 14.9854L23.2459 17.5427L23.4694 17.8745L27.266 15.3172L27.0425 14.9854ZM23.2459 12.7599L27.0425 15.3172L27.266 14.9854L23.4694 12.4282L23.2459 12.7599ZM23.5577 14.7294L23.5577 12.594L23.1577 12.594L23.1577 14.7294L23.5577 14.7294ZM1 14.9294L23.3577 14.9294L23.3577 14.5294L1 14.5294L1 14.9294Z" fill="#1D1C1B" mask="url(#path-2-outside-1_42_32)"/>
</svg>
