<svg width="100" height="100" viewBox="0 0 100 100" fill="none" xmlns="http://www.w3.org/2000/svg">
<mask id="mask0_482_363" style="mask-type:alpha" maskUnits="userSpaceOnUse" x="0" y="0" width="100" height="100">
<rect width="100" height="100" fill="#D9D9D9"/>
</mask>
<g mask="url(#mask0_482_363)">
<path d="M39.5833 68.75L68.7499 50L39.5833 31.25V68.75ZM49.9999 91.6667C44.236 91.6667 38.8194 90.5729 33.7499 88.3854C28.6805 86.1979 24.2708 83.2292 20.5208 79.4792C16.7708 75.7292 13.802 71.3194 11.6145 66.25C9.427 61.1806 8.33325 55.7639 8.33325 50C8.33325 44.2361 9.427 38.8194 11.6145 33.75C13.802 28.6806 16.7708 24.2708 20.5208 20.5208C24.2708 16.7708 28.6805 13.8021 33.7499 11.6146C38.8194 9.42708 44.236 8.33333 49.9999 8.33333C55.7638 8.33333 61.1805 9.42708 66.2499 11.6146C71.3194 13.8021 75.7291 16.7708 79.4791 20.5208C83.2291 24.2708 86.1978 28.6806 88.3853 33.75C90.5728 38.8194 91.6666 44.2361 91.6666 50C91.6666 55.7639 90.5728 61.1806 88.3853 66.25C86.1978 71.3194 83.2291 75.7292 79.4791 79.4792C75.7291 83.2292 71.3194 86.1979 66.2499 88.3854C61.1805 90.5729 55.7638 91.6667 49.9999 91.6667Z" fill="white"/>
</g>
</svg>
