<svg width="22" height="22" viewBox="0 0 22 22" fill="none" xmlns="http://www.w3.org/2000/svg">
<path d="M20.1663 3.66577C19.4513 4.09019 18.0168 4.6686 17.1734 4.83544C17.1487 4.84185 17.1285 4.8501 17.1047 4.85652C16.3594 4.12135 15.3383 3.66577 14.208 3.66577C11.9301 3.66577 10.083 5.51285 10.083 7.79077C10.083 7.91085 10.0729 8.13177 10.083 8.2491C7.00942 8.2491 4.67009 6.63944 2.99259 4.58244C2.81017 5.04077 2.73042 5.76494 2.73042 6.4451C2.73042 7.72935 3.73417 8.99069 5.29709 9.7726C5.00926 9.84685 4.69209 9.90002 4.36209 9.90002C3.82951 9.90002 3.26576 9.75977 2.74967 9.33444C2.74967 9.35002 2.74967 9.36469 2.74967 9.38119C2.74967 11.176 4.65451 12.3979 6.34851 12.738C6.00476 12.9406 5.31176 12.9608 4.97351 12.9608C4.73517 12.9608 3.89184 12.8517 3.66634 12.8095C4.13751 14.2808 5.83701 15.1076 7.45676 15.1369C6.18992 16.1306 5.31084 16.4991 2.71667 16.4991H1.83301C3.47201 17.5496 5.55926 18.3334 7.65109 18.3334C14.4619 18.3334 18.333 13.1423 18.333 8.2491C18.333 8.17027 18.3312 8.00527 18.3284 7.83935C18.3284 7.82285 18.333 7.80727 18.333 7.79077C18.333 7.76602 18.3257 7.74219 18.3257 7.71744C18.3229 7.59277 18.3202 7.47635 18.3174 7.41585C19.0416 6.89335 19.6695 6.2416 20.1663 5.4991C19.5018 5.79427 18.7886 5.99227 18.0397 6.0821C18.8042 5.62377 19.8904 4.5311 20.1663 3.66577Z" fill="#1D1C1B"/>
</svg>
