<svg width="307" height="352" viewBox="0 0 307 352" fill="none" xmlns="http://www.w3.org/2000/svg">
<g clip-path="url(#clip0_87_102)">
<path d="M112.529 351.056H73.2116L0 146.413H35.3371L92.3933 312.856L168.189 90.5903C168.189 90.5903 172.123 79.4165 173.846 74.5046C178.478 61.5151 184.321 55.7187 191.747 51.2259C199.429 46.6167 210.44 43.9164 225.408 43.9164C226.875 43.9164 229.505 44.0793 233.253 44.3354V75.7151C218.89 75.7151 215.305 77.3912 210.393 80.7666C205.458 84.1653 203.456 87.0519 201.082 92.3362C200.616 93.3837 199.988 95.1063 199.988 95.1063L112.553 351.056H112.529Z" fill="#D3AA59"/>
<path d="M284.722 0.943848C272.431 0.943848 262.445 10.9071 262.445 23.2216C262.445 35.536 272.408 45.4993 284.722 45.4993C297.037 45.4993 307 35.536 307 23.2216C307 10.9071 297.014 0.943848 284.722 0.943848ZM284.722 41.7049C274.503 41.7049 266.239 33.4177 266.239 23.2216C266.239 13.0255 274.526 4.73828 284.722 4.73828C294.918 4.73828 303.206 13.0255 303.206 23.2216C303.206 33.4177 294.918 41.7049 284.722 41.7049ZM289.075 25.0606C290.798 24.4321 292.986 22.6164 292.986 19.1245C292.986 15.6327 290.728 12.6065 285.816 12.6065H278.065C277.855 12.6065 277.669 12.7927 277.669 13.0022V33.3944C277.669 33.6272 277.855 33.7901 278.065 33.7901H280.765C280.974 33.7901 281.161 33.6039 281.161 33.3944V25.6426H285.56L289.262 33.5574C289.332 33.697 289.471 33.7901 289.611 33.7901H292.707C292.916 33.7901 293.103 33.6272 293.103 33.3944C293.103 33.3246 293.103 33.278 293.056 33.2082L289.052 25.0373L289.075 25.0606ZM285.211 22.8724H281.161V15.5163H285.304C287.679 15.5163 289.332 16.7734 289.332 19.2642C289.332 21.5921 287.842 22.8724 285.211 22.8724Z" fill="#D3AA59"/>
</g>
<defs>
<clipPath id="clip0_87_102">
<rect width="307" height="350.112" fill="white" transform="translate(0 0.943848)"/>
</clipPath>
</defs>
</svg>
