<svg width="22" height="18" viewBox="0 0 22 18" fill="none" xmlns="http://www.w3.org/2000/svg">
<path d="M4 18C3.71667 18 3.47917 17.9042 3.2875 17.7125C3.09583 17.5208 3 17.2833 3 17V16C2.16667 16 1.45833 15.7083 0.875 15.125C0.291667 14.5417 0 13.8333 0 13V8C0 7.45 0.195833 6.97917 0.5875 6.5875C0.979167 6.19583 1.45 6 2 6C2.55 6 3.02083 6.19583 3.4125 6.5875C3.80417 6.97917 4 7.45 4 8V12H18V8C18 7.45 18.1958 6.97917 18.5875 6.5875C18.9792 6.19583 19.45 6 20 6C20.55 6 21.0208 6.19583 21.4125 6.5875C21.8042 6.97917 22 7.45 22 8V13C22 13.8333 21.7083 14.5417 21.125 15.125C20.5417 15.7083 19.8333 16 19 16V17C19 17.2833 18.9042 17.5208 18.7125 17.7125C18.5208 17.9042 18.2833 18 18 18C17.7167 18 17.4792 17.9042 17.2875 17.7125C17.0958 17.5208 17 17.2833 17 17V16H5V17C5 17.2833 4.90417 17.5208 4.7125 17.7125C4.52083 17.9042 4.28333 18 4 18ZM6 10V8C6 7.08333 5.72083 6.2625 5.1625 5.5375C4.60417 4.8125 3.88333 4.3 3 4V3C3 2.16667 3.29167 1.45833 3.875 0.875C4.45833 0.291667 5.16667 0 6 0H16C16.8333 0 17.5417 0.291667 18.125 0.875C18.7083 1.45833 19 2.16667 19 3V4C18.1 4.23333 17.375 4.72083 16.825 5.4625C16.275 6.20417 16 7.05 16 8V10H6Z" fill="white"/>
</svg>
