<svg width="140" height="33" viewBox="0 0 140 33" fill="none" xmlns="http://www.w3.org/2000/svg">
<g clip-path="url(#clip0_315_1058)">
<path fill-rule="evenodd" clip-rule="evenodd" d="M28.6051 20.5659L31.0648 21.0722C30.6156 22.5242 29.7344 23.7279 28.4239 24.681C27.1134 25.6316 25.5746 26.1057 23.8049 26.1057C21.4718 26.1057 19.5781 25.2842 18.1335 23.6436C16.6915 21.998 15.9692 19.8486 15.9692 17.1804C15.9692 14.5123 16.7188 12.2586 18.2179 10.5857C19.7171 8.90789 21.6009 8.06897 23.867 8.06897C26.1331 8.06897 27.8953 8.84336 29.2529 10.3921C30.6106 11.9409 31.3105 14.2591 31.3428 17.3467H18.9129C18.9129 19.9305 19.4565 21.6704 20.5411 22.5738C21.6307 23.4748 22.7774 23.929 23.9911 23.929C26.1752 23.929 27.7141 22.8071 28.6076 20.5684M28.4339 15.3735C28.4091 14.4105 28.2527 13.5542 27.9573 12.8071C27.6644 12.06 27.1631 11.4246 26.4656 10.9009C25.7657 10.3723 24.9194 10.1067 23.939 10.1067C22.6136 10.1067 21.4892 10.5832 20.5684 11.5339C19.6451 12.4845 19.1313 13.7652 19.0171 15.3735H28.4339Z" fill="#1F1A17"/>
<path fill-rule="evenodd" clip-rule="evenodd" d="M37.9497 25.6218H35.3213V8.55056H37.6395V12.5367C38.466 10.6652 39.295 9.45401 40.124 8.90052C40.9579 8.34455 41.8093 8.07153 42.6804 8.07153C42.951 8.07153 43.3034 8.09387 43.7328 8.13606V10.6652H43.1843C41.7125 10.6652 40.4888 11.2088 39.5134 12.2984C38.5404 13.388 38.0143 14.8176 37.9473 16.5923V25.6243L37.9497 25.6218Z" fill="#1F1A17"/>
<path fill-rule="evenodd" clip-rule="evenodd" d="M60.6207 5.88485V7.99703C59.4219 7.99703 58.6202 8.13851 58.2082 8.42145C57.7987 8.70192 57.5232 9.21073 57.3867 9.94541C58.4812 11.2087 59.0273 12.5863 59.0273 14.0779C59.0273 15.5696 58.4366 16.972 57.2526 18.0889C56.0687 19.2082 54.4827 19.7667 52.4822 19.7667C52.0355 19.7667 51.6483 19.732 51.3231 19.6625C50.7076 19.5408 50.3229 19.4788 50.1616 19.4788C49.8637 19.4788 49.4914 19.6277 49.0695 19.9255C48.645 20.2234 48.4316 20.6081 48.4316 21.0772C48.4316 21.7498 48.7394 22.1867 49.3574 22.3902C49.9729 22.5887 51.4249 22.7203 53.7108 22.7749C55.6517 22.8345 57.0839 22.966 58.0072 23.1745C58.933 23.383 59.7148 23.8471 60.3551 24.5644C60.9955 25.2792 61.3157 26.1579 61.3157 27.1978C61.3157 30.4592 58.4614 32.0923 52.7528 32.0923C50.0474 32.0923 48.0717 31.6828 46.8307 30.8613C45.5897 30.0397 44.9717 28.9452 44.9717 27.5751C44.9717 25.9097 45.8379 24.7655 47.5728 24.145C46.4609 23.4103 45.9049 22.4919 45.9049 21.3875C45.9049 20.0695 46.6917 19.0618 48.2579 18.3594C46.7811 17.1631 46.0439 15.659 46.0439 13.8446C46.0439 12.1519 46.6719 10.7645 47.9302 9.6848C49.1886 8.60016 50.72 8.06156 52.5294 8.06156C53.8051 8.06156 54.9667 8.30232 56.0116 8.78631C56.1804 7.67437 56.5701 6.90495 57.1807 6.48053C57.7937 6.0561 58.7195 5.84265 59.968 5.84265C60.0896 5.84265 60.308 5.85258 60.6232 5.87492M52.5592 17.7265C53.6835 17.7265 54.5969 17.3815 55.3018 16.6865C56.0092 15.9916 56.3616 15.0906 56.3616 13.9836C56.3616 12.8767 55.9943 11.9335 55.2596 11.2162C54.5274 10.5014 53.6364 10.1415 52.5939 10.1415C51.5515 10.1415 50.7101 10.4766 49.9407 11.1492C49.1663 11.8218 48.7791 12.7774 48.7791 14.0184C48.7791 15.1229 49.1266 16.0189 49.8215 16.7014C50.519 17.384 51.4299 17.724 52.5617 17.724M49.3822 24.9367C48.1486 25.4778 47.5306 26.2646 47.5306 27.2971C47.5306 28.1708 48.0394 28.8484 49.0546 29.3299C50.0697 29.8139 51.3604 30.0521 52.929 30.0521C54.3859 30.0521 55.7237 29.8436 56.9325 29.4316C58.1462 29.0171 58.7518 28.3147 58.7518 27.3319C58.7518 26.7957 58.5706 26.3639 58.2132 26.0189C57.8533 25.6788 57.3668 25.4629 56.7413 25.3736C56.1184 25.2817 55.0337 25.2147 53.485 25.17C51.6359 25.1254 50.2658 25.0459 49.3822 24.9342" fill="#1F1A17"/>
<path fill-rule="evenodd" clip-rule="evenodd" d="M77.1083 25.6217H74.4749C74.3731 25.0806 74.2689 24.0556 74.1671 22.5415C72.9907 24.9168 70.9976 26.1057 68.1756 26.1057C66.257 26.1057 64.7901 25.5969 63.7576 24.5818C62.7325 23.5666 62.2188 22.3455 62.2188 20.9233C62.2188 19.1958 62.9509 17.7736 64.4203 16.6617C65.8847 15.5497 68.3791 14.9913 71.8961 14.9913C72.3702 14.9913 73.1272 15.0161 74.1671 15.0608C74.1671 13.7056 74.0654 12.7302 73.8544 12.127C73.6434 11.5264 73.2041 11.0449 72.5265 10.6825C71.8514 10.3226 70.9629 10.1414 69.8584 10.1414C67.1679 10.1414 65.6042 11.1715 65.1624 13.2241L62.7052 12.8022C63.3034 9.64504 65.8127 8.06897 70.2406 8.06897C72.5935 8.06897 74.2639 8.59019 75.2493 9.63263C76.2396 10.6726 76.731 12.482 76.731 15.0509V22.3058C76.731 23.5145 76.8576 24.619 77.1108 25.6217M74.1671 17.1035C73.0825 17.034 72.2609 17.0017 71.695 17.0017C69.5953 17.0017 67.9646 17.3467 66.803 18.0367C65.639 18.7267 65.0557 19.7319 65.0557 21.0523C65.0557 21.8888 65.3709 22.5986 65.9964 23.1869C66.6218 23.7726 67.5253 24.063 68.7067 24.063C70.3076 24.063 71.6231 23.4822 72.6556 22.3206C73.6831 21.1566 74.1994 19.789 74.1994 18.2229C74.1994 17.9101 74.187 17.5329 74.1671 17.106" fill="#1F1A17"/>
<path fill-rule="evenodd" clip-rule="evenodd" d="M95.3837 2.52673V25.6218H92.991V22.7104C91.7972 24.974 89.9952 26.1058 87.5926 26.1058C85.5946 26.1058 83.954 25.2693 82.6659 23.5915C81.3802 21.9137 80.7349 19.7916 80.7349 17.2301C80.7349 14.6687 81.3727 12.4275 82.646 10.6826C83.9218 8.93775 85.6145 8.06657 87.7267 8.06657C89.8389 8.06657 91.4497 8.9998 92.7527 10.8688V2.52673H95.3837ZM92.7527 15.1304C92.7527 13.6337 92.2936 12.4324 91.3802 11.5314C90.4668 10.628 89.3995 10.1788 88.1809 10.1788C86.8629 10.1788 85.7733 10.767 84.9245 11.941C84.0707 13.1174 83.6463 14.7655 83.6463 16.8901C83.6463 19.1835 84.0384 20.9308 84.8202 22.1271C85.607 23.3235 86.6842 23.9266 88.0493 23.9266C89.2903 23.9266 90.3849 23.4078 91.3305 22.3654C92.2762 21.3254 92.7527 20.1043 92.7527 18.7044V15.1279V15.1304Z" fill="#1F1A17"/>
<path fill-rule="evenodd" clip-rule="evenodd" d="M111.956 20.5659L114.413 21.0722C113.959 22.5242 113.083 23.7279 111.772 24.681C110.464 25.6316 108.923 26.1057 107.151 26.1057C104.815 26.1057 102.926 25.2842 101.482 23.6436C100.035 21.998 99.3149 19.8486 99.3149 17.1804C99.3149 14.5123 100.065 12.2586 101.564 10.5857C103.06 8.90789 104.944 8.06897 107.215 8.06897C109.486 8.06897 111.238 8.84336 112.599 10.3921C113.956 11.9409 114.654 14.2591 114.686 17.3467H102.256C102.256 19.9305 102.8 21.6704 103.887 22.5738C104.974 23.4748 106.121 23.929 107.332 23.929C109.516 23.929 111.055 22.8071 111.951 20.5684M111.78 15.3735C111.757 14.4105 111.601 13.5542 111.303 12.8071C111.013 12.06 110.514 11.4246 109.811 10.9009C109.114 10.3723 108.268 10.1067 107.282 10.1067C105.959 10.1067 104.835 10.5832 103.914 11.5339C102.993 12.4845 102.477 13.7652 102.36 15.3735H111.777H111.78Z" fill="#1F1A17"/>
<path d="M121.298 2.52673H118.669V25.6218H121.298V2.52673Z" fill="#1F1A17"/>
<path fill-rule="evenodd" clip-rule="evenodd" d="M140 25.6217H137.371C137.267 25.0806 137.165 24.0556 137.061 22.5415C135.885 24.9168 133.892 26.1057 131.07 26.1057C129.151 26.1057 127.679 25.5969 126.654 24.5818C125.627 23.5666 125.113 22.3455 125.113 20.9233C125.113 19.1958 125.847 17.7736 127.314 16.6617C128.776 15.5497 131.271 14.9913 134.79 14.9913C135.264 14.9913 136.021 15.0161 137.059 15.0608C137.059 13.7056 136.954 12.7302 136.748 12.127C136.537 11.5264 136.093 11.0449 135.421 10.6825C134.748 10.3226 133.857 10.1414 132.752 10.1414C130.062 10.1414 128.496 11.1715 128.056 13.2241L125.599 12.8022C126.195 9.64504 128.707 8.06897 133.137 8.06897C135.49 8.06897 137.158 8.59019 138.146 9.63263C139.131 10.6726 139.623 12.482 139.623 15.0509V22.3058C139.623 23.5145 139.749 24.619 140.002 25.6217M137.059 17.1035C135.972 17.034 135.153 17.0017 134.587 17.0017C132.489 17.0017 130.856 17.3467 129.692 18.0367C128.533 18.7267 127.952 19.7319 127.952 21.0523C127.952 21.8888 128.265 22.5986 128.89 23.1869C129.516 23.7726 130.417 24.063 131.601 24.063C133.202 24.063 134.512 23.4822 135.545 22.3206C136.577 21.1566 137.091 19.789 137.091 18.2229C137.091 17.9101 137.079 17.5329 137.059 17.106" fill="#1F1A17"/>
<path d="M9.38695 25.6217H6.10822L0 8.55051H2.94614L7.70415 22.4348L14.0283 3.89427C14.0283 3.89427 14.3559 2.96103 14.4999 2.5515C14.8871 1.46687 15.3735 0.982874 15.994 0.610573C16.6344 0.225863 17.5527 0 18.8012 0C18.9253 0 19.1437 0.014892 19.4564 0.0347481V2.65078C18.2576 2.65078 17.9598 2.78977 17.5478 3.07272C17.1358 3.35567 16.9695 3.59643 16.7709 4.03822C16.7312 4.12757 16.6791 4.26905 16.6791 4.26905L9.38446 25.6193L9.38695 25.6217Z" fill="#1F1A17"/>
</g>
<defs>
<clipPath id="clip0_315_1058">
<rect width="140" height="32.0948" fill="white"/>
</clipPath>
</defs>
</svg>
