<svg width="225" height="285" viewBox="0 0 225 285" fill="none" xmlns="http://www.w3.org/2000/svg">
<g clip-path="url(#clip0_407_1732)">
<path fill-rule="evenodd" clip-rule="evenodd" d="M37.7116 269.65L40.9528 270.321C40.3588 272.236 39.1965 273.824 37.4709 275.078C35.7453 276.332 33.7125 276.957 31.3776 276.957C28.3003 276.957 25.8067 275.872 23.9019 273.711C22.0022 271.54 21.0498 268.708 21.0498 265.191C21.0498 261.673 22.038 258.703 24.0145 256.496C25.991 254.284 28.4744 253.178 31.4596 253.178C34.4448 253.178 36.7694 254.202 38.5616 256.24C40.3537 258.283 41.2754 261.34 41.3163 265.411H24.9259C24.9259 268.816 25.6428 271.11 27.0714 272.303C28.5051 273.491 30.0207 274.09 31.6183 274.09C34.5011 274.09 36.5288 272.61 37.7013 269.661M37.4863 262.81C37.4555 261.54 37.2507 260.413 36.8565 259.425C36.4724 258.442 35.8119 257.602 34.8902 256.911C33.9686 256.214 32.8523 255.866 31.5569 255.866C29.8108 255.866 28.3259 256.496 27.1124 257.751C25.8937 259.005 25.2178 260.695 25.0693 262.81H37.4863Z" fill="white"/>
<path fill-rule="evenodd" clip-rule="evenodd" d="M50.0368 276.317H46.5703V253.813H49.6272V259.067C50.7178 256.599 51.8085 255.001 52.9042 254.274C54.0051 253.542 55.1265 253.178 56.2735 253.178C56.6319 253.178 57.0927 253.209 57.6611 253.265V256.599H56.9391C54.9985 256.599 53.3856 257.315 52.1003 258.754C50.8151 260.188 50.1239 262.077 50.0368 264.417V276.322V276.317Z" fill="white"/>
<path fill-rule="evenodd" clip-rule="evenodd" d="M79.924 250.3V253.086C78.3469 253.086 77.287 253.275 76.7443 253.644C76.2015 254.013 75.8431 254.683 75.6638 255.656C77.1078 257.32 77.8247 259.138 77.8247 261.104C77.8247 263.071 77.0464 264.924 75.4846 266.394C73.9229 267.869 71.8287 268.606 69.1968 268.606C68.6079 268.606 68.0959 268.56 67.6709 268.468C66.8568 268.309 66.3498 268.227 66.1399 268.227C65.7456 268.227 65.2592 268.422 64.7011 268.816C64.1378 269.21 63.8613 269.717 63.8613 270.337C63.8613 271.222 64.2658 271.801 65.08 272.067C65.889 272.328 67.804 272.502 70.82 272.574C73.3801 272.651 75.2645 272.825 76.4831 273.102C77.7018 273.378 78.7361 273.987 79.5758 274.935C80.4207 275.877 80.8457 277.039 80.8457 278.406C80.8457 282.707 77.0822 284.858 69.5552 284.858C65.9863 284.858 63.3851 284.32 61.7466 283.235C60.1081 282.149 59.2939 280.705 59.2939 278.903C59.2939 276.706 60.4358 275.201 62.7246 274.382C61.2602 273.414 60.528 272.205 60.528 270.746C60.528 269.005 61.5623 267.679 63.6309 266.757C61.6852 265.18 60.7123 263.194 60.7123 260.807C60.7123 258.575 61.5418 256.747 63.1957 255.324C64.8547 253.895 66.8721 253.183 69.2582 253.183C70.9377 253.183 72.4738 253.501 73.8461 254.141C74.0663 252.671 74.5834 251.662 75.3873 251.099C76.1964 250.541 77.415 250.259 79.0638 250.259C79.2225 250.259 79.5093 250.275 79.9291 250.306M69.2941 265.913C70.7739 265.913 71.9823 265.457 72.9091 264.54C73.841 263.624 74.3069 262.436 74.3069 260.976C74.3069 259.517 73.8205 258.273 72.8527 257.331C71.8901 256.389 70.7124 255.912 69.3402 255.912C67.9679 255.912 66.8568 256.358 65.8429 257.239C64.8188 258.124 64.3119 259.384 64.3119 261.023C64.3119 262.477 64.7676 263.66 65.6842 264.561C66.6007 265.457 67.804 265.907 69.2941 265.907M65.1056 275.416C63.4773 276.133 62.6632 277.167 62.6632 278.529C62.6632 279.681 63.3339 280.577 64.6755 281.207C66.0119 281.842 67.717 282.16 69.7856 282.16C71.7058 282.16 73.4672 281.888 75.0648 281.345C76.6623 280.798 77.4611 279.871 77.4611 278.575C77.4611 277.869 77.2256 277.3 76.7494 276.845C76.2783 276.394 75.6331 276.112 74.8087 275.995C73.9895 275.872 72.5609 275.785 70.5127 275.728C68.0754 275.667 66.2679 275.564 65.1056 275.416Z" fill="white"/>
<path fill-rule="evenodd" clip-rule="evenodd" d="M101.661 276.317H98.189C98.0559 275.605 97.9176 274.254 97.7845 272.257C96.233 275.39 93.6063 276.957 89.8837 276.957C87.3543 276.957 85.4188 276.286 84.0619 274.945C82.7101 273.603 82.0342 271.996 82.0342 270.121C82.0342 267.843 83.0019 265.969 84.9374 264.504C86.8678 263.04 90.1551 262.303 94.7942 262.303C95.4189 262.303 96.4174 262.333 97.7845 262.395C97.7845 260.608 97.6514 259.323 97.3698 258.529C97.0933 257.735 96.5095 257.1 95.6186 256.624C94.7276 256.148 93.5551 255.912 92.1009 255.912C88.5524 255.912 86.4889 257.269 85.9103 259.978L82.6742 259.42C83.4628 255.257 86.7705 253.178 92.6078 253.178C95.7108 253.178 97.9125 253.864 99.208 255.242C100.514 256.614 101.159 258.995 101.159 262.385V271.949C101.159 273.542 101.328 275.001 101.661 276.322M97.7845 265.088C96.3559 264.996 95.2704 264.955 94.5279 264.955C91.7578 264.955 89.6124 265.411 88.0762 266.317C86.5401 267.228 85.7721 268.555 85.7721 270.29C85.7721 271.391 86.1868 272.328 87.0112 273.107C87.8356 273.88 89.0286 274.264 90.5852 274.264C92.6948 274.264 94.4307 273.501 95.7927 271.97C97.1496 270.434 97.8306 268.631 97.8306 266.568C97.8306 266.153 97.8152 265.662 97.7896 265.093" fill="white"/>
<path fill-rule="evenodd" clip-rule="evenodd" d="M125.757 245.871V276.322H122.602V272.482C121.03 275.467 118.655 276.957 115.485 276.957C112.848 276.957 110.687 275.851 108.987 273.644C107.292 271.432 106.442 268.637 106.442 265.257C106.442 261.878 107.282 258.928 108.962 256.624C110.641 254.325 112.874 253.178 115.659 253.178C118.445 253.178 120.57 254.407 122.285 256.87V245.871H125.757ZM122.285 262.487C122.285 260.516 121.681 258.928 120.477 257.74C119.274 256.552 117.866 255.958 116.258 255.958C114.517 255.958 113.084 256.732 111.962 258.283C110.836 259.835 110.278 262.006 110.278 264.812C110.278 267.833 110.795 270.137 111.824 271.714C112.863 273.291 114.282 274.085 116.084 274.085C117.717 274.085 119.161 273.399 120.411 272.026C121.66 270.654 122.285 269.046 122.285 267.198V262.482V262.487Z" fill="white"/>
<path fill-rule="evenodd" clip-rule="evenodd" d="M147.606 269.65L150.847 270.321C150.248 272.236 149.091 273.824 147.365 275.078C145.64 276.333 143.612 276.957 141.272 276.957C138.195 276.957 135.701 275.872 133.802 273.711C131.892 271.54 130.944 268.708 130.944 265.191C130.944 261.673 131.933 258.703 133.909 256.496C135.886 254.284 138.364 253.178 141.359 253.178C144.355 253.178 146.664 254.202 148.456 256.24C150.243 258.283 151.165 261.34 151.211 265.411H134.826C134.826 268.816 135.542 271.11 136.976 272.303C138.41 273.491 139.92 274.09 141.518 274.09C144.396 274.09 146.428 272.61 147.606 269.661M147.376 262.81C147.345 261.54 147.14 260.413 146.746 259.425C146.362 258.442 145.701 257.602 144.78 256.911C143.858 256.214 142.747 255.866 141.446 255.866C139.7 255.866 138.22 256.496 137.007 257.751C135.793 259.005 135.112 260.695 134.959 262.81H147.376Z" fill="white"/>
<path d="M159.925 245.871H156.459V276.322H159.925V245.871Z" fill="white"/>
<path fill-rule="evenodd" clip-rule="evenodd" d="M184.58 276.317H181.113C180.975 275.605 180.842 274.254 180.704 272.257C179.152 275.39 176.525 276.957 172.803 276.957C170.273 276.957 168.333 276.286 166.981 274.945C165.624 273.603 164.948 271.996 164.948 270.121C164.948 267.843 165.916 265.969 167.851 264.504C169.777 263.04 173.069 262.303 177.708 262.303C178.333 262.303 179.331 262.333 180.699 262.395C180.699 260.608 180.56 259.323 180.289 258.529C180.012 257.735 179.429 257.1 178.538 256.624C177.652 256.148 176.474 255.912 175.02 255.912C171.477 255.912 169.408 257.269 168.829 259.978L165.588 259.42C166.372 255.257 169.685 253.178 175.527 253.178C178.63 253.178 180.827 253.864 182.132 255.242C183.433 256.614 184.083 258.995 184.083 262.385V271.949C184.083 273.542 184.252 275.001 184.585 276.322M180.704 265.088C179.27 264.996 178.19 264.955 177.442 264.955C174.677 264.955 172.521 265.411 170.99 266.317C169.459 267.228 168.696 268.555 168.696 270.29C168.696 271.391 169.111 272.328 169.936 273.107C170.76 273.88 171.948 274.264 173.51 274.264C175.619 274.264 177.35 273.501 178.712 271.97C180.074 270.434 180.75 268.631 180.75 266.568C180.75 266.153 180.734 265.662 180.709 265.093" fill="white"/>
<path d="M12.376 276.317H8.05438L0 253.813H3.88638L10.1589 272.118L18.4949 247.674C18.4949 247.674 18.925 246.445 19.1196 245.907C19.6265 244.479 20.2716 243.838 21.0858 243.347C21.9307 242.84 23.1391 242.543 24.7878 242.543C24.9517 242.543 25.2384 242.564 25.6532 242.589V246.04C24.0761 246.04 23.6767 246.225 23.1391 246.598C22.5963 246.972 22.3761 247.29 22.115 247.873C22.0638 247.991 21.9921 248.175 21.9921 248.175L12.376 276.327V276.317Z" fill="white"/>
<path d="M190.97 241.821C188.743 241.821 186.94 243.629 186.94 245.856C186.94 248.083 188.748 249.891 190.97 249.891C193.192 249.891 195 248.083 195 245.856C195 243.629 193.192 241.821 190.97 241.821ZM190.97 249.2C189.122 249.2 187.621 247.699 187.621 245.851C187.621 244.002 189.122 242.502 190.97 242.502C192.819 242.502 194.319 244.002 194.319 245.851C194.319 247.699 192.819 249.2 190.97 249.2ZM191.759 246.189C192.071 246.076 192.465 245.748 192.465 245.119C192.465 244.489 192.056 243.936 191.165 243.936H189.762C189.721 243.936 189.69 243.966 189.69 244.007V247.699C189.69 247.74 189.721 247.771 189.762 247.771H190.253C190.294 247.771 190.325 247.74 190.325 247.699V246.296H191.124L191.795 247.73C191.795 247.73 191.83 247.771 191.861 247.771H192.419C192.46 247.771 192.491 247.74 192.491 247.699C192.491 247.689 192.491 247.679 192.481 247.669L191.754 246.189H191.759ZM191.057 245.789H190.325V244.458H191.078C191.508 244.458 191.805 244.688 191.805 245.139C191.805 245.559 191.539 245.789 191.062 245.789" fill="white"/>
</g>
<g clip-path="url(#clip1_407_1732)">
<path d="M101.476 222.384H76.5025L30 92.3988H52.4454L88.6863 198.12L136.83 56.9416C136.83 56.9416 139.329 49.8442 140.423 46.7243C143.366 38.4736 147.077 34.7919 151.794 31.9381C156.673 29.0105 163.667 27.2953 173.174 27.2953C174.106 27.2953 175.777 27.3988 178.157 27.5614V47.4932C169.034 47.4932 166.757 48.5578 163.637 50.7018C160.503 52.8606 159.231 54.6941 157.723 58.0505C157.427 58.7159 157.028 59.8101 157.028 59.8101L101.491 222.384H101.476Z" fill="#E0B75B"/>
<path d="M210.85 0C203.042 0 196.699 6.32848 196.699 14.1504C196.699 21.9722 203.028 28.3007 210.85 28.3007C218.671 28.3007 225 21.9722 225 14.1504C225 6.32848 218.657 0 210.85 0ZM210.85 25.8906C204.358 25.8906 199.109 20.6267 199.109 14.1504C199.109 7.67402 204.373 2.41015 210.85 2.41015C217.326 2.41015 222.59 7.67402 222.59 14.1504C222.59 20.6267 217.326 25.8906 210.85 25.8906ZM213.615 15.3185C214.709 14.9192 216.099 13.7659 216.099 11.548C216.099 9.33007 214.664 7.40787 211.545 7.40787H206.621C206.488 7.40787 206.369 7.52616 206.369 7.65923V20.6119C206.369 20.7598 206.488 20.8633 206.621 20.8633H208.336C208.469 20.8633 208.587 20.745 208.587 20.6119V15.6881H211.382L213.733 20.7154C213.777 20.8041 213.866 20.8633 213.955 20.8633H215.921C216.054 20.8633 216.173 20.7598 216.173 20.6119C216.173 20.5676 216.173 20.538 216.143 20.4936L213.6 15.3037L213.615 15.3185ZM211.16 13.9286H208.587V9.25614H211.219C212.727 9.25614 213.777 10.0546 213.777 11.6367C213.777 13.1153 212.831 13.9286 211.16 13.9286Z" fill="#E0B75B"/>
</g>
<defs>
<clipPath id="clip0_407_1732">
<rect width="195" height="43.0318" fill="white" transform="translate(0 241.821)"/>
</clipPath>
<clipPath id="clip1_407_1732">
<rect width="195" height="222.384" fill="white" transform="translate(30)"/>
</clipPath>
</defs>
</svg>
